<svg width="778" height="383" viewBox="0 0 778 383" fill="none" xmlns="http://www.w3.org/2000/svg">
<path d="M767.197 347.951C772.851 328.771 761.886 308.641 742.707 302.987L486.231 227.388C467.052 221.734 446.921 232.699 441.268 251.878V251.878C435.615 271.057 446.58 291.188 465.759 296.841L722.234 372.441C741.413 378.094 761.544 367.13 767.197 347.951V347.951Z" fill="#FFC800"/>
<path d="M508.698 285.635L508.811 261.044L512.256 262.061L511.964 280.597L521.783 264.892L525.248 265.898L524.956 284.433L534.779 268.712L538.24 269.734L524.962 290.437L521.69 289.471L521.832 271.096L511.97 286.601L508.698 285.635ZM530.406 292.045L544.455 271.569L549.189 272.967L549.863 297.789L546.45 296.782L545.773 274.113L546.622 274.363L533.819 293.052L530.406 292.045ZM535.738 288.061L536.648 284.979L548.476 288.471L547.566 291.554L535.738 288.061ZM555.789 299.539L555.116 274.717L558.529 275.724L559.097 296.908L571.159 279.454L574.572 280.461L560.523 300.937L555.789 299.539ZM570.256 303.811L576.944 281.162L591.414 285.434L590.5 288.533L579.316 285.231L577.44 291.585L586.736 294.33L585.821 297.429L576.525 294.684L574.459 301.683L585.642 304.985L584.727 308.084L570.256 303.811ZM594.177 310.857L595.057 307.936L607.529 302.008C608.533 301.541 609.271 301.03 609.743 300.474C610.226 299.921 610.561 299.324 610.75 298.685C610.989 297.877 611.024 297.101 610.856 296.356C610.692 295.601 610.351 294.942 609.833 294.378C609.315 293.815 608.648 293.413 607.83 293.171C606.991 292.923 606.182 292.901 605.404 293.105C604.639 293.301 603.977 293.67 603.419 294.211C602.86 294.753 602.474 295.403 602.261 296.161L598.895 295.167C599.329 293.699 600.039 292.512 601.024 291.606C602.023 290.693 603.196 290.099 604.543 289.824C605.893 289.538 607.317 289.617 608.817 290.06C610.243 290.481 611.426 291.184 612.367 292.168C613.31 293.142 613.941 294.286 614.26 295.6C614.59 296.917 614.542 298.294 614.118 299.73C613.811 300.768 613.415 301.609 612.929 302.252C612.443 302.895 611.835 303.445 611.108 303.903C610.38 304.361 609.5 304.831 608.468 305.313L598.849 309.86L598.766 308.809L610.421 312.25L609.497 315.38L594.177 310.857ZM627.633 321.266C626.008 320.786 624.622 320.074 623.475 319.132C622.342 318.181 621.504 317.062 620.962 315.773C620.432 314.477 620.254 313.073 620.426 311.562L624.009 312.056C623.946 313.542 624.351 314.836 625.222 315.937C626.097 317.027 627.269 317.789 628.737 318.223C629.649 318.492 630.53 318.598 631.379 318.541C632.231 318.474 632.967 318.24 633.586 317.842C634.219 317.436 634.647 316.856 634.87 316.101C634.99 315.692 635.024 315.308 634.97 314.95C634.927 314.595 634.813 314.266 634.629 313.961C634.46 313.648 634.221 313.355 633.914 313.082C633.621 312.802 633.283 312.537 632.901 312.287L627.603 308.859C627.086 308.524 626.573 308.139 626.063 307.703C625.556 307.257 625.12 306.747 624.754 306.171C624.402 305.588 624.168 304.932 624.053 304.203C623.941 303.463 624.021 302.632 624.293 301.709C624.705 300.314 625.41 299.24 626.408 298.486C627.419 297.724 628.611 297.278 629.984 297.148C631.359 297.006 632.807 297.16 634.327 297.609C635.852 298.082 637.14 298.759 638.191 299.639C639.253 300.523 640.036 301.575 640.542 302.796C641.062 304.01 641.268 305.358 641.16 306.843L637.46 306.4C637.554 305.504 637.433 304.677 637.099 303.917C636.768 303.146 636.278 302.489 635.63 301.944C634.984 301.389 634.228 300.977 633.361 300.71C632.528 300.441 631.72 300.339 630.937 300.404C630.165 300.473 629.496 300.691 628.931 301.06C628.376 301.432 628.005 301.938 627.816 302.578C627.63 303.207 627.663 303.77 627.916 304.266C628.168 304.762 628.528 305.205 628.995 305.594C629.475 305.975 629.961 306.318 630.452 306.622L634.288 309.037C634.769 309.339 635.302 309.713 635.888 310.16C636.488 310.599 637.033 311.13 637.521 311.753C638.02 312.38 638.366 313.12 638.558 313.975C638.754 314.819 638.689 315.792 638.364 316.893C638.026 318.036 637.498 318.974 636.78 319.708C636.065 320.432 635.217 320.968 634.236 321.317C633.269 321.658 632.217 321.821 631.082 321.805C629.947 321.789 628.797 321.609 627.633 321.266ZM639.178 324.161L639.331 323.642L656.511 308.024L645.579 304.796L646.494 301.698L663.072 306.593L662.914 307.127L645.807 322.733L657.1 326.067L656.18 329.182L639.178 324.161ZM660.174 330.361L666.862 307.712L670.196 308.696L676.379 328.818L681.348 311.989L684.682 312.973L677.995 335.623L674.66 334.638L668.483 314.5L663.509 331.345L660.174 330.361Z" fill="#141B41"/>
<rect x="56.2617" y="283.001" width="432.687" height="78.8812" rx="39.4406" transform="rotate(1.64299 56.2617 283.001)" fill="#F5ECE1"/>
<path d="M205.007 343.511C202.646 343.511 200.634 342.997 198.972 341.969C197.31 340.93 196.037 339.487 195.151 337.639C194.276 335.792 193.839 333.649 193.839 331.211C193.839 328.772 194.276 326.629 195.151 324.782C196.037 322.934 197.31 321.496 198.972 320.469C200.634 319.43 202.646 318.911 205.007 318.911C207.73 318.911 209.982 319.599 211.764 320.977C213.557 322.355 214.804 324.208 215.503 326.537L212.027 327.471C211.567 325.82 210.747 324.525 209.567 323.585C208.397 322.644 206.877 322.174 205.007 322.174C203.335 322.174 201.941 322.551 200.825 323.306C199.71 324.06 198.868 325.115 198.3 326.471C197.742 327.827 197.463 329.407 197.463 331.211C197.453 333.015 197.726 334.594 198.283 335.95C198.852 337.306 199.694 338.361 200.809 339.115C201.935 339.87 203.335 340.247 205.007 340.247C206.877 340.247 208.397 339.777 209.567 338.837C210.747 337.885 211.567 336.59 212.027 334.95L215.503 335.885C214.804 338.213 213.557 340.067 211.764 341.444C209.982 342.822 207.73 343.511 205.007 343.511ZM228.967 343.511C226.605 343.511 224.594 342.997 222.932 341.969C221.27 340.93 219.996 339.487 219.11 337.639C218.236 335.792 217.798 333.649 217.798 331.211C217.798 328.772 218.236 326.629 219.11 324.782C219.996 322.934 221.27 321.496 222.932 320.469C224.594 319.43 226.605 318.911 228.967 318.911C231.318 318.911 233.324 319.43 234.986 320.469C236.658 321.496 237.932 322.934 238.807 324.782C239.682 326.629 240.119 328.772 240.119 331.211C240.119 333.649 239.682 335.792 238.807 337.639C237.932 339.487 236.658 340.93 234.986 341.969C233.324 342.997 231.318 343.511 228.967 343.511ZM228.967 340.247C230.64 340.269 232.028 339.903 233.132 339.148C234.248 338.383 235.084 337.322 235.642 335.967C236.199 334.6 236.478 333.015 236.478 331.211C236.478 329.407 236.199 327.832 235.642 326.487C235.084 325.132 234.248 324.077 233.132 323.322C232.028 322.568 230.64 322.185 228.967 322.174C227.294 322.152 225.9 322.519 224.785 323.273C223.681 324.027 222.85 325.088 222.292 326.455C221.734 327.821 221.45 329.407 221.439 331.211C221.428 333.015 221.702 334.594 222.259 335.95C222.817 337.295 223.653 338.345 224.768 339.099C225.895 339.853 227.294 340.236 228.967 340.247ZM253.247 343.511C250.885 343.511 248.873 342.997 247.211 341.969C245.549 340.93 244.276 339.487 243.39 337.639C242.515 335.792 242.078 333.649 242.078 331.211C242.078 328.772 242.515 326.629 243.39 324.782C244.276 322.934 245.549 321.496 247.211 320.469C248.873 319.43 250.885 318.911 253.247 318.911C255.597 318.911 257.603 319.43 259.265 320.469C260.938 321.496 262.212 322.934 263.087 324.782C263.961 326.629 264.399 328.772 264.399 331.211C264.399 333.649 263.961 335.792 263.087 337.639C262.212 339.487 260.938 340.93 259.265 341.969C257.603 342.997 255.597 343.511 253.247 343.511ZM253.247 340.247C254.919 340.269 256.308 339.903 257.412 339.148C258.527 338.383 259.364 337.322 259.921 335.967C260.479 334.6 260.758 333.015 260.758 331.211C260.758 329.407 260.479 327.832 259.921 326.487C259.364 325.132 258.527 324.077 257.412 323.322C256.308 322.568 254.919 322.185 253.247 322.174C251.574 322.152 250.18 322.519 249.065 323.273C247.96 324.027 247.129 325.088 246.572 326.455C246.014 327.821 245.73 329.407 245.719 331.211C245.708 333.015 245.981 334.594 246.539 335.95C247.097 337.295 247.933 338.345 249.048 339.099C250.174 339.853 251.574 340.236 253.247 340.247ZM267.67 343.019V319.403H271.097V330.423L280.987 319.403H285.251L274.804 330.932L286.021 343.019H281.626L271.097 331.735V343.019H267.67ZM288.658 343.019V319.403H292.086V343.019H288.658ZM297.01 343.019V319.403H300.487L312.115 336.951V319.403H315.592V343.019H312.115L300.487 325.454V343.019H297.01ZM329.829 343.511C328.243 343.511 326.784 343.237 325.45 342.691C324.116 342.133 322.957 341.324 321.973 340.263C320.989 339.203 320.224 337.913 319.677 336.393C319.13 334.873 318.857 333.146 318.857 331.211C318.857 328.663 319.322 326.476 320.251 324.651C321.18 322.814 322.471 321.403 324.121 320.419C325.772 319.424 327.675 318.927 329.829 318.927C332.606 318.927 334.82 319.572 336.471 320.862C338.133 322.152 339.264 323.934 339.865 326.209L336.389 326.832C335.908 325.421 335.131 324.295 334.06 323.453C332.988 322.611 331.644 322.185 330.025 322.174C328.353 322.163 326.959 322.535 325.843 323.289C324.739 324.044 323.908 325.104 323.351 326.471C322.793 327.827 322.509 329.407 322.498 331.211C322.487 333.015 322.76 334.594 323.318 335.95C323.875 337.295 324.712 338.345 325.827 339.099C326.953 339.853 328.353 340.236 330.025 340.247C331.37 340.269 332.524 340.023 333.486 339.509C334.459 338.984 335.23 338.219 335.798 337.213C336.367 336.207 336.733 334.972 336.897 333.507H332.305V330.751H340.538C340.56 330.948 340.576 331.211 340.587 331.539C340.598 331.856 340.603 332.058 340.603 332.145C340.603 334.332 340.183 336.284 339.341 338C338.499 339.717 337.274 341.067 335.667 342.051C334.06 343.024 332.114 343.511 329.829 343.511ZM345.512 343.019V339.689H348.94V343.019H345.512ZM345.512 337.115V319.403H348.94V337.115H345.512Z" fill="#141B41"/>
<path d="M13.9897 176.963C8.36954 154.717 21.8475 132.127 44.0937 126.506L419.187 31.7441C441.433 26.1239 464.023 39.6019 469.643 61.848V61.848C475.263 84.0942 461.785 106.684 439.539 112.304L64.4462 207.067C42.2001 212.687 19.6099 199.209 13.9897 176.963V176.963Z" fill="#F094FF"/>
<path d="M151.15 158.003L138.666 136.816L142.146 135.928L151.378 152.003L151.779 133.485L155.271 132.577L164.504 148.652L164.901 130.119L168.397 129.226L167.58 153.808L164.275 154.652L154.996 138.791L154.455 157.159L151.15 158.003ZM173.081 152.404L174.676 127.623L179.459 126.402L192.737 147.386L189.289 148.266L177.11 129.134L177.968 128.915L176.529 151.524L173.081 152.404ZM175.624 146.254L174.829 143.139L186.778 140.089L187.573 143.203L175.624 146.254ZM198.724 145.857L185.446 124.874L188.894 123.993L200.22 141.904L201.654 120.736L205.102 119.856L203.507 144.636L198.724 145.857ZM213.341 142.126L207.499 119.244L222.118 115.512L222.917 118.642L211.619 121.526L213.258 127.946L222.649 125.549L223.448 128.679L214.057 131.076L215.862 138.148L227.16 135.263L227.96 138.394L213.341 142.126ZM237.498 135.942L236.76 132.982L244.443 121.508C245.067 120.593 245.44 119.775 245.561 119.056C245.692 118.334 245.676 117.65 245.511 117.004C245.302 116.188 244.936 115.503 244.411 114.949C243.883 114.384 243.252 113.992 242.519 113.773C241.786 113.554 241.007 113.55 240.18 113.761C239.333 113.977 238.627 114.372 238.062 114.945C237.506 115.504 237.126 116.16 236.923 116.912C236.719 117.663 236.721 118.419 236.926 119.179L233.525 120.047C233.147 118.564 233.149 117.181 233.533 115.898C233.924 114.602 234.628 113.492 235.644 112.566C236.658 111.631 237.922 110.969 239.437 110.583C240.877 110.215 242.254 110.213 243.566 110.578C244.875 110.932 246.002 111.592 246.948 112.558C247.905 113.521 248.569 114.728 248.939 116.18C249.207 117.228 249.297 118.153 249.208 118.955C249.119 119.756 248.879 120.539 248.487 121.305C248.096 122.071 247.581 122.924 246.941 123.866L241.003 132.694L240.394 131.834L252.168 128.828L252.976 131.99L237.498 135.942ZM271.57 127.768C269.928 128.187 268.373 128.285 266.905 128.062C265.446 127.825 264.153 127.292 263.027 126.462C261.909 125.619 261.038 124.505 260.413 123.118L263.743 121.709C264.45 123.019 265.459 123.923 266.772 124.423C268.082 124.912 269.478 124.968 270.961 124.589C271.883 124.354 272.694 123.995 273.394 123.511C274.092 123.017 274.604 122.44 274.933 121.781C275.269 121.109 275.339 120.391 275.145 119.628C275.039 119.215 274.872 118.868 274.642 118.589C274.423 118.306 274.157 118.08 273.843 117.912C273.538 117.731 273.183 117.601 272.779 117.524C272.384 117.433 271.958 117.378 271.502 117.359L265.196 117.124C264.581 117.101 263.943 117.032 263.282 116.919C262.618 116.795 261.982 116.579 261.373 116.272C260.772 115.951 260.236 115.507 259.764 114.939C259.289 114.361 258.932 113.606 258.694 112.674C258.335 111.265 258.391 109.981 258.862 108.822C259.342 107.651 260.138 106.658 261.25 105.843C262.36 105.018 263.682 104.41 265.218 104.018C266.771 103.644 268.223 103.566 269.577 103.785C270.941 104.001 272.153 104.504 273.212 105.294C274.279 106.071 275.146 107.125 275.813 108.456L272.408 109.968C272.03 109.151 271.503 108.501 270.827 108.019C270.148 107.527 269.391 107.212 268.555 107.076C267.716 106.929 266.856 106.962 265.974 107.176C265.121 107.371 264.375 107.697 263.735 108.154C263.107 108.608 262.644 109.138 262.347 109.744C262.061 110.347 262.001 110.972 262.166 111.618C262.328 112.254 262.644 112.72 263.115 113.018C263.586 113.315 264.121 113.511 264.721 113.606C265.329 113.688 265.922 113.734 266.5 113.744L271.031 113.857C271.599 113.87 272.248 113.919 272.981 114.003C273.721 114.073 274.46 114.251 275.199 114.537C275.948 114.819 276.624 115.279 277.226 115.915C277.826 116.54 278.268 117.409 278.552 118.521C278.847 119.676 278.873 120.753 278.632 121.751C278.387 122.738 277.933 123.633 277.269 124.435C276.612 125.223 275.792 125.9 274.809 126.467C273.825 127.034 272.745 127.468 271.57 127.768ZM282.97 124.35L282.836 123.826L289.607 101.617L278.563 104.436L277.764 101.306L294.513 97.0299L294.65 97.5702L287.935 119.731L299.344 116.819L300.148 119.965L282.97 124.35ZM304.182 118.935L298.341 96.0526L301.71 95.1926L317.317 109.319L312.976 92.3164L316.345 91.4564L322.186 114.339L318.817 115.199L303.207 101.056L307.551 118.075L304.182 118.935Z" fill="#141B41"/>
<path d="M735.829 245.673C740.573 224.84 727.529 204.106 706.696 199.362L397.038 128.854C376.205 124.111 355.471 137.154 350.727 157.987V157.987C345.984 178.82 359.027 199.554 379.86 204.298L689.518 274.806C710.351 279.549 731.085 266.506 735.829 245.673V245.673Z" fill="#5CA1FE"/>
<path d="M405.06 181.405L416.79 161.957L421.188 162.98L423.132 185.609L419.962 184.872L418.13 164.209L418.919 164.393L408.23 182.143L405.06 181.405ZM409.714 177.483L410.38 174.619L421.367 177.175L420.701 180.038L409.714 177.483ZM425.753 186.219L430.647 165.18L439.15 167.158C439.354 167.206 439.605 167.274 439.903 167.364C440.202 167.444 440.483 167.54 440.744 167.652C441.87 168.109 442.751 168.735 443.388 169.53C444.034 170.327 444.443 171.238 444.615 172.264C444.787 173.29 444.742 174.367 444.479 175.497C444.089 177.173 443.324 178.519 442.184 179.537C441.046 180.546 439.585 181.002 437.8 180.905L436.525 180.762L430.564 179.376L428.807 186.929L425.753 186.219ZM438.055 189.08L435.897 179.553L439.163 179.482L441.547 189.892L438.055 189.08ZM431.236 176.483L436.569 177.723C436.764 177.768 436.98 177.809 437.219 177.843C437.467 177.881 437.704 177.9 437.929 177.901C438.587 177.9 439.15 177.749 439.621 177.447C440.094 177.136 440.473 176.742 440.759 176.264C441.044 175.787 441.247 175.29 441.367 174.773C441.487 174.257 441.523 173.727 441.476 173.182C441.43 172.627 441.263 172.111 440.973 171.633C440.686 171.145 440.248 170.755 439.659 170.464C439.458 170.356 439.238 170.264 438.999 170.188C438.77 170.114 438.558 170.054 438.363 170.009L433.031 168.769L431.236 176.483ZM444.758 190.639L449.651 169.601L463.092 172.727L462.423 175.605L452.035 173.189L450.662 179.091L459.297 181.1L458.627 183.978L449.993 181.97L448.481 188.471L458.868 190.887L458.199 193.765L444.758 190.639ZM472.627 197.121L474.649 188.428L470.405 174.428L473.97 175.257L477.013 185.282L484.168 177.629L487.733 178.458L477.746 189.149L475.724 197.842L472.627 197.121ZM492.387 202.179C490.283 201.69 488.597 200.815 487.33 199.555C486.065 198.286 485.229 196.736 484.823 194.907C484.426 193.079 484.481 191.08 484.986 188.908C485.491 186.736 486.325 184.917 487.487 183.452C488.659 181.99 490.091 180.973 491.785 180.402C493.481 179.821 495.38 179.775 497.484 180.264C499.578 180.751 501.258 181.63 502.523 182.899C503.8 184.162 504.637 185.706 505.034 187.534C505.43 189.361 505.376 191.361 504.87 193.533C504.365 195.705 503.531 197.523 502.369 198.988C501.207 200.453 499.774 201.474 498.068 202.053C496.375 202.624 494.481 202.666 492.387 202.179ZM493.063 199.272C494.549 199.638 495.862 199.599 497.002 199.156C498.154 198.705 499.119 197.934 499.896 196.842C500.676 195.74 501.253 194.385 501.627 192.778C502.001 191.171 502.079 189.711 501.86 188.397C501.645 187.074 501.118 185.961 500.281 185.058C499.454 184.157 498.296 183.528 496.808 183.172C495.322 182.806 494.004 182.843 492.855 183.284C491.715 183.727 490.755 184.5 489.975 185.602C489.195 186.704 488.613 188.057 488.23 189.662C487.846 191.267 487.762 192.731 487.978 194.054C488.196 195.368 488.724 196.476 489.561 197.379C490.408 198.285 491.575 198.916 493.063 199.272ZM513.622 207.118C511.976 206.736 510.598 206.061 509.488 205.094C508.39 204.12 507.627 202.942 507.2 201.559C506.774 200.166 506.754 198.642 507.139 196.986L510.228 183.706L513.329 184.412L510.274 197.546C510.065 198.442 510.033 199.266 510.176 200.018C510.319 200.77 510.591 201.434 510.991 202.01C511.391 202.585 511.876 203.062 512.445 203.441C513.023 203.822 513.639 204.089 514.292 204.24C514.954 204.394 515.624 204.427 516.302 204.338C516.991 204.242 517.643 204.024 518.256 203.684C518.869 203.344 519.4 202.867 519.851 202.253C520.312 201.642 520.645 200.893 520.851 200.006L523.906 186.872L527.004 187.592L523.911 200.887C523.528 202.534 522.839 203.887 521.842 204.949C520.846 206.011 519.635 206.736 518.21 207.123C516.798 207.503 515.268 207.501 513.622 207.118ZM532.047 210.942L536.94 189.904L545.443 191.881C545.648 191.929 545.899 191.998 546.196 192.087C546.496 192.167 546.776 192.263 547.038 192.375C548.163 192.832 549.045 193.458 549.681 194.253C550.327 195.05 550.736 195.962 550.909 196.987C551.081 198.013 551.035 199.091 550.773 200.22C550.383 201.896 549.618 203.242 548.478 204.261C547.34 205.269 545.878 205.725 544.094 205.628L542.818 205.485L536.857 204.099L535.1 211.652L532.047 210.942ZM544.348 213.803L542.191 204.277L545.457 204.205L547.84 214.615L544.348 213.803ZM537.53 201.206L542.863 202.446C543.057 202.492 543.274 202.532 543.512 202.567C543.76 202.604 543.997 202.623 544.223 202.624C544.88 202.623 545.444 202.472 545.914 202.171C546.387 201.86 546.766 201.465 547.052 200.988C547.338 200.51 547.541 200.013 547.661 199.497C547.781 198.98 547.817 198.45 547.769 197.905C547.724 197.35 547.556 196.834 547.267 196.356C546.98 195.868 546.542 195.479 545.952 195.188C545.752 195.079 545.532 194.987 545.293 194.911C545.064 194.837 544.852 194.778 544.657 194.732L539.324 193.492L537.53 201.206ZM551.051 215.362L555.945 194.324L569.386 197.45L568.716 200.328L558.329 197.912L556.956 203.815L565.59 205.823L564.921 208.701L556.286 206.693L554.774 213.194L565.162 215.61L564.492 218.489L551.051 215.362ZM566.54 218.965L578.271 199.517L582.669 200.54L584.613 223.168L581.442 222.431L579.611 201.769L580.4 201.952L569.71 219.702L566.54 218.965ZM571.195 215.042L571.861 212.179L582.848 214.734L582.181 217.598L571.195 215.042ZM587.234 223.778L592.127 202.74L598.716 204.272C598.911 204.318 599.27 204.406 599.794 204.538C600.327 204.673 600.83 204.831 601.301 205.012C602.899 205.599 604.145 206.51 605.039 207.745C605.942 208.982 606.507 210.417 606.733 212.051C606.961 213.674 606.867 215.378 606.453 217.16C606.036 218.952 605.366 220.531 604.442 221.898C603.521 223.254 602.382 224.288 601.026 224.999C599.681 225.703 598.162 225.966 596.469 225.787C595.966 225.742 595.445 225.662 594.907 225.548C594.379 225.435 594.018 225.356 593.823 225.311L587.234 223.778ZM591.037 221.598L594.499 222.403C594.83 222.48 595.227 222.562 595.689 222.649C596.152 222.736 596.565 222.791 596.929 222.815C598.048 222.859 599.023 222.598 599.853 222.031C600.695 221.457 601.395 220.676 601.953 219.686C602.512 218.697 602.931 217.604 603.209 216.406C603.497 215.169 603.603 213.987 603.526 212.86C603.451 211.724 603.161 210.722 602.654 209.855C602.159 208.98 601.409 208.323 600.402 207.883C600.067 207.733 599.667 207.599 599.202 207.481C598.749 207.355 598.361 207.254 598.04 207.18L594.577 206.374L591.037 221.598ZM611.593 229.444L613.615 220.751L609.372 206.751L612.936 207.58L615.979 217.605L623.134 209.952L626.699 210.781L616.712 221.471L614.691 230.164L611.593 229.444ZM629.089 227.492C629.252 226.79 629.458 226.145 629.708 225.557C629.968 224.97 630.318 224.436 630.759 223.953C631.144 223.488 631.549 223.136 631.975 222.896C632.412 222.649 632.877 222.418 633.368 222.204C633.871 221.982 634.414 221.677 634.997 221.289C635.487 220.951 635.846 220.578 636.074 220.169C636.312 219.762 636.491 219.306 636.608 218.799C636.694 218.429 636.731 218.073 636.718 217.731C636.705 217.39 636.624 217.078 636.474 216.797C636.252 216.335 635.921 215.97 635.48 215.703C635.042 215.427 634.564 215.228 634.048 215.108C633.58 215 633.118 214.959 632.66 214.986C632.211 215.015 631.815 215.128 631.472 215.325C631.111 215.508 630.813 215.773 630.579 216.119C630.356 216.457 630.199 216.847 630.107 217.287L626.893 216.539C627.184 215.642 627.617 214.839 628.192 214.131C628.767 213.423 629.444 212.898 630.222 212.555C630.891 212.238 631.611 212.057 632.381 212.01C633.154 211.954 633.901 212.009 634.622 212.177C635.654 212.417 636.591 212.805 637.432 213.339C638.282 213.876 638.931 214.576 639.377 215.439C639.707 216.05 639.908 216.707 639.98 217.412C640.065 218.109 640.026 218.804 639.865 219.495C639.65 220.421 639.251 221.231 638.668 221.927C638.095 222.626 637.426 223.23 636.66 223.74C636.26 224.006 635.861 224.241 635.464 224.447C635.07 224.643 634.7 224.839 634.357 225.036C634.013 225.234 633.713 225.467 633.455 225.735C633.088 226.122 632.843 226.491 632.72 226.843C632.6 227.184 632.47 227.652 632.332 228.246L629.089 227.492ZM627.774 233.208L628.597 229.672L631.826 230.423L631.003 233.959L627.774 233.208ZM644.983 231.189C645.146 230.487 645.352 229.842 645.602 229.254C645.862 228.667 646.212 228.133 646.653 227.65C647.038 227.185 647.443 226.833 647.869 226.593C648.306 226.346 648.771 226.115 649.262 225.901C649.765 225.679 650.308 225.374 650.891 224.986C651.381 224.648 651.74 224.275 651.968 223.866C652.207 223.459 652.385 223.003 652.502 222.496C652.589 222.126 652.625 221.77 652.612 221.428C652.599 221.086 652.518 220.775 652.368 220.494C652.147 220.031 651.816 219.667 651.374 219.4C650.936 219.124 650.458 218.925 649.942 218.805C649.475 218.696 649.012 218.656 648.554 218.682C648.105 218.712 647.71 218.825 647.366 219.022C647.005 219.205 646.707 219.47 646.473 219.816C646.251 220.154 646.093 220.543 646.001 220.984L642.787 220.236C643.078 219.339 643.511 218.536 644.086 217.828C644.662 217.12 645.338 216.595 646.116 216.252C646.785 215.935 647.505 215.754 648.276 215.707C649.048 215.651 649.795 215.706 650.516 215.874C651.548 216.114 652.485 216.501 653.326 217.036C654.176 217.572 654.825 218.272 655.271 219.136C655.601 219.747 655.802 220.404 655.874 221.109C655.959 221.806 655.92 222.501 655.759 223.192C655.544 224.117 655.145 224.928 654.562 225.624C653.989 226.322 653.32 226.927 652.555 227.436C652.154 227.703 651.755 227.938 651.358 228.144C650.964 228.339 650.595 228.536 650.251 228.733C649.907 228.931 649.607 229.163 649.349 229.432C648.982 229.819 648.737 230.188 648.614 230.539C648.494 230.881 648.364 231.349 648.226 231.943L644.983 231.189ZM643.669 236.905L644.491 233.369L647.72 234.12L646.897 237.656L643.669 236.905ZM657.094 240.027L657.783 237.061L660.837 237.771L660.147 240.737L657.094 240.027ZM658.317 234.767L661.987 218.989L665.04 219.699L661.37 235.478L658.317 234.767Z" fill="#141B41"/>
<rect x="30" y="205.171" width="366.896" height="78.8812" rx="39.4406" transform="rotate(-0.0265107 30 205.171)" fill="#DF96AE"/>
<path d="M120.683 255.228L114.909 231.325L118.497 231.488L122.649 249.555L128.424 231.957L132.029 232.104L136.181 250.172L141.957 232.556L145.562 232.721L137.623 256L134.215 255.844L129.956 237.969L124.091 255.383L120.683 255.228ZM143.294 256.258L152.035 233.015L156.967 233.24L163.56 257.18L160.005 257.019L153.924 235.17L154.809 235.21L146.849 256.42L143.294 256.258ZM147.518 251.115L147.664 247.903L159.984 248.464L159.838 251.675L147.518 251.115ZM169.733 257.461L163.14 233.521L166.695 233.683L172.315 254.115L179.85 234.282L183.405 234.444L174.664 257.686L169.733 257.461ZM184.802 258.148L185.876 234.556L200.949 235.242L200.802 238.47L189.153 237.939L188.852 244.558L198.534 244.999L198.387 248.226L188.705 247.786L188.373 255.076L200.021 255.606L199.874 258.834L184.802 258.148ZM209.714 259.265L209.869 256.219L220.56 247.479C221.424 246.785 222.018 246.112 222.343 245.459C222.68 244.807 222.863 244.147 222.893 243.481C222.931 242.64 222.78 241.878 222.439 241.195C222.098 240.501 221.61 239.942 220.972 239.519C220.335 239.096 219.59 238.865 218.738 238.827C217.864 238.787 217.074 238.959 216.367 239.343C215.671 239.716 215.117 240.232 214.704 240.892C214.291 241.552 214.072 242.275 214.047 243.062L210.541 242.902C210.611 241.373 211.016 240.051 211.756 238.936C212.508 237.81 213.504 236.952 214.746 236.363C215.988 235.763 217.39 235.498 218.952 235.569C220.437 235.637 221.755 236.036 222.903 236.767C224.053 237.487 224.939 238.447 225.563 239.646C226.198 240.846 226.481 242.194 226.413 243.691C226.364 244.772 226.18 245.683 225.862 246.424C225.544 247.164 225.086 247.844 224.489 248.463C223.891 249.081 223.15 249.748 222.263 250.463L214.012 257.179L213.68 256.179L225.819 256.732L225.671 259.992L209.714 259.265ZM244.689 261.367C242.996 261.29 241.48 260.931 240.141 260.289C238.813 259.638 237.732 258.752 236.896 257.63C236.072 256.498 235.563 255.178 235.369 253.67L238.966 253.292C239.26 254.75 239.963 255.909 241.073 256.769C242.183 257.619 243.503 258.079 245.032 258.148C245.982 258.191 246.863 258.084 247.674 257.825C248.485 257.556 249.143 257.153 249.649 256.618C250.167 256.073 250.443 255.407 250.479 254.62C250.498 254.194 250.439 253.814 250.301 253.479C250.174 253.145 249.985 252.852 249.734 252.6C249.494 252.337 249.192 252.11 248.829 251.918C248.477 251.716 248.086 251.54 247.655 251.389L241.691 249.328C241.109 249.126 240.518 248.875 239.919 248.574C239.32 248.262 238.775 247.871 238.282 247.4C237.8 246.918 237.416 246.337 237.13 245.656C236.844 244.965 236.723 244.138 236.766 243.177C236.833 241.724 237.26 240.513 238.048 239.542C238.848 238.56 239.899 237.842 241.2 237.387C242.502 236.921 243.944 236.724 245.528 236.796C247.122 236.89 248.534 237.239 249.765 237.842C251.007 238.446 252.02 239.28 252.803 240.345C253.598 241.399 254.121 242.659 254.372 244.126L250.673 244.582C250.55 243.69 250.235 242.915 249.729 242.257C249.223 241.588 248.59 241.067 247.83 240.693C247.07 240.308 246.237 240.09 245.331 240.037C244.459 239.976 243.65 240.07 242.905 240.321C242.171 240.572 241.574 240.944 241.114 241.438C240.665 241.932 240.425 242.512 240.395 243.178C240.365 243.833 240.532 244.372 240.896 244.793C241.259 245.215 241.714 245.558 242.261 245.824C242.818 246.079 243.372 246.296 243.922 246.474L248.224 247.901C248.763 248.079 249.371 248.315 250.047 248.608C250.734 248.891 251.39 249.277 252.013 249.765C252.648 250.254 253.161 250.89 253.552 251.674C253.943 252.447 254.113 253.407 254.061 254.553C254.007 255.744 253.719 256.782 253.197 257.666C252.676 258.54 251.98 259.263 251.112 259.837C250.254 260.4 249.272 260.809 248.166 261.065C247.06 261.321 245.901 261.422 244.689 261.367ZM256.59 261.416L256.615 260.875L269.559 241.6L258.173 241.082L258.32 237.854L275.588 238.64L275.562 239.197L262.685 258.443L274.448 258.978L274.3 262.222L256.59 261.416ZM278.46 262.412L279.535 238.82L283.008 238.978L293.825 257.037L294.623 239.507L298.097 239.665L297.022 263.257L293.549 263.099L282.733 245.024L281.934 262.57L278.46 262.412Z" fill="#141B41"/>
</svg>
